<svg xmlns="http://www.w3.org/2000/svg" viewBox="0 0 16 16"><rect width="16" height="16" style="fill:none"/><polygon points="15 6 14 6 14 4 13 4 13 3 12 3 12 2 10 2 10 1 6 1 6 2 4 2 4 3 3 3 3 4 2 4 2 6 1 6 1 10 2 10 2 12 3 12 3 13 4 13 4 14 6 14 6 15 10 15 10 14 12 14 12 13 13 13 13 12 14 12 14 10 15 10 15 6"/><polygon points="14 6 13 6 13 4 12 4 12 3 10 3 10 2 6 2 6 3 4 3 4 4 3 4 3 6 2 6 2 10 3 10 3 12 4 12 4 13 6 13 6 14 10 14 10 13 12 13 12 12 13 12 13 10 14 10 14 6" style="fill:#fff"/><path d="M5,4V5H3V4H4V3H5Zm6,1V3H10V2H8V5h3ZM5,11v2H6v1H8V11H5ZM5,8H2v2H3v1H5V8Zm8-2V5H11V8h3V6ZM8,5H5V8H8Zm0,6h3V8H8Zm3,2h1V12h1V11H11v2Z" style="fill:#ddd"/></svg>